<svg width="30" height="30" fill="none" xmlns="http://www.w3.org/2000/svg"><path d="M15 2C9.625 2 4.996 5.27 3.022 9.938a1 1 0 101.841.779A10.999 10.999 0 0115 4c2.693 0 5.148.962 7.06 2.564a1 1 0 101.286-1.533A12.963 12.963 0 0015 2zm0 4c-1.049 0-2.06.18-3 .512a1.001 1.001 0 10.668 1.886A6.969 6.969 0 0115 8c3.878 0 7 3.123 7 7v10a1 1 0 102 0V15c0-4.959-4.041-9-9-9zm10.504 2.225a1 1 0 00-.854 1.492A10.946 10.946 0 0126 15v7a1 1 0 102 0v-7c0-2.26-.58-4.39-1.596-6.244a1 1 0 00-.9-.531zM8.649 9.07a1 1 0 00-.745.395A8.975 8.975 0 006 15v10a1 1 0 102 0V15c0-1.628.552-3.117 1.48-4.305a1 1 0 00-.83-1.625zM15 10c-2.75 0-5 2.25-5 5v12a1 1 0 102 0V15c0-1.668 1.332-3 3-3 1.669 0 3 1.332 3 3 0 1.198-.05 2.448-.129 3.664a1.002 1.002 0 001.662.82 1 1 0 00.334-.693A59.85 59.85 0 0020 15c0-2.75-2.25-5-5-5zM2.98 13.176a1 1 0 00-.95.945c-.02.29-.03.584-.03.879v7a1 1 0 102 0v-7c0-.251.009-.499.025-.744a1 1 0 00-1.044-1.08zm12.005.81A1 1 0 0014 15v6.838a1 1 0 102 0V15a1 1 0 00-1.015-1.014zm4 8.248A1 1 0 0018 23.248V27a1 1 0 102 0v-3.752a1.001 1.001 0 00-1.015-1.014zm-3.958 2.643a1 1 0 00-1.005.996L14 26.98a1 1 0 002 .04l.022-1.108a1 1 0 00-.995-1.035z" fill="#192536"/></svg>