<svg width="37" height="37" fill="none" xmlns="http://www.w3.org/2000/svg"><path d="M29.494 4.933a2.749 2.749 0 00-.545.075L12.34 8.958a2.764 2.764 0 00-1.73 1.248 2.762 2.762 0 00-.337 2.106l2.154 9.062a2.791 2.791 0 003.353 2.064l6.593-1.568a2.467 2.467 0 001.335 1.368l.563 4.507a4.947 4.947 0 004.895 4.322H33.3a1.232 1.232 0 100-2.467h-4.134a2.452 2.452 0 01-2.447-2.16l-.564-4.508a2.468 2.468 0 00.978-1.965 2.448 2.448 0 00-.014-.227l5.27-1.252a2.79 2.79 0 002.067-3.356l-2.154-9.057a2.758 2.758 0 00-1.25-1.727 2.755 2.755 0 00-1.558-.415zM3.668 12.947A1.232 1.232 0 002.5 14.466l2.154 9.06a1.235 1.235 0 001.992.66l2.661-2.228c.36-.3.519-.776.41-1.231l-1.436-6.04a1.235 1.235 0 00-.917-.915l-3.38-.792a1.255 1.255 0 00-.316-.031z" fill="#fff"/></svg>