<svg width="770" height="769" xmlns="http://www.w3.org/2000/svg"><g fill="none" fill-rule="evenodd"><g fill-rule="nonzero"><path fill="#FFF" d="M.9.2h768.7v752.5H.9z"/><path d="M716.3 768.2h-662c-29.271 0-53-23.729-53-53V114.1l384 611.9 384-611.9v601.1c0 29.271-23.729 53-53 53z" fill="#B62B2E"/><path fill="#162638" d="M554.4 106.6l-169.1 96.8-169.2-96.8v204.5l169.2-96.8 169.1 96.8z"/><circle fill="#162638" cx="385.3" cy="436.7" r="21.3"/><circle fill="#162638" cx="385.3" cy="555.3" r="21.3"/></g><path d="M742.459 13.64c-6.648-3.556-13.33-5.14-31.428-5.14H58.322c-17.621.041-24.217 1.63-30.78 5.14-5.994 3.205-10.697 7.908-13.903 13.901C10.084 34.19 8.5 40.871 8.5 58.97v650.709c.041 17.621 1.63 24.217 5.14 30.78 3.205 5.994 7.908 10.697 13.901 13.903 6.648 3.555 13.33 5.139 31.428 5.139h652.062c18.097 0 24.78-1.584 31.428-5.14 5.993-3.205 10.696-7.908 13.902-13.901 3.555-6.648 5.139-13.33 5.139-31.428V58.969c0-18.097-1.584-24.78-5.14-31.428-3.205-5.993-7.908-10.696-13.901-13.902z" stroke="#1D1D1E" stroke-width="17"/></g></svg>