<svg width="30" height="30" fill="none" xmlns="http://www.w3.org/2000/svg"><path d="M25.154 3.984a2.718 2.718 0 00-.894.217c-.25.1-1.204.51-2.707 1.155-1.505.645-3.497 1.5-5.621 2.414-4.25 1.827-9.028 3.884-11.475 4.937-.092.04-.413.142-.754.408-.34.266-.703.818-.703 1.432 0 .495.236.987.533 1.281.297.294.612.44.881.549l4.58 1.873c.202.617 1.299 3.973 1.553 4.795.168.543.327.883.535 1.152.104.135.225.253.371.346.059.037.123.066.188.092l.004.002c.014.006.027.016.043.021.028.01.047.011.085.02.153.049.306.08.444.08.585 0 .943-.322.943-.322l.022-.016 3.01-2.604 3.65 3.454c.051.072.53.73 1.588.73.627 0 1.125-.315 1.445-.65.32-.336.519-.688.604-1.131v-.002c.079-.419 3.443-17.69 3.443-17.69l-.006.024c.099-.45.124-.868.016-1.281a1.747 1.747 0 00-.75-1.022 1.797 1.797 0 00-1.028-.264zm-.187 2.09c-.005.03.003.015-.004.05l-.002.01-.002.013s-3.322 17.05-3.445 17.699c.009-.05-.032.048-.075.107a1.646 1.646 0 00-.181-.094l-.02-.021-4.986-4.717-3.525 3.047 1.048-4.2s6.557-6.786 6.952-7.18c.318-.317.384-.427.384-.536 0-.146-.076-.252-.246-.252-.153 0-.358.149-.468.219-1.434.913-7.725 4.58-10.545 6.22l-4.618-1.888.014-.006 11.473-4.938 5.62-2.414c1.48-.634 2.51-1.071 2.626-1.119z" fill="#1D1D1E"/></svg>