<svg width="30" height="30" fill="none" xmlns="http://www.w3.org/2000/svg"><path d="M25.362 8.32c-.41-1.459-1.218-2.614-2.405-3.431-1.498-1.032-3.221-1.398-4.71-1.62-2.058-.307-3.923-.35-5.7-.133-1.665.204-2.92.53-4.064 1.056-2.243 1.03-3.59 2.698-4 4.956a31.002 31.002 0 00-.412 3.032c-.18 2.185-.017 4.119.499 5.911.502 1.747 1.38 2.996 2.684 3.816.333.209.757.36 1.169.506.206.073.404.145.577.221v3.53a.836.836 0 001.419.599l3.257-3.168c.142-.162.142-.162.288-.165a99.47 99.47 0 003.38-.126c1.369-.075 2.955-.207 4.449-.83 1.367-.571 2.365-1.477 2.964-2.692.625-1.268.997-2.642 1.136-4.199.244-2.738.07-5.114-.531-7.263zM19.69 18.74c-.327.535-.817.905-1.393 1.145-.421.176-.851.139-1.266-.037-3.484-1.474-6.215-3.798-8.021-7.137-.372-.688-.631-1.437-.928-2.164-.061-.15-.056-.325-.083-.488.026-1.175.927-1.836 1.837-2.036.348-.077.656.046.914.293a8.042 8.042 0 011.704 2.358c.186.389.102.733-.215 1.022-.065.06-.134.116-.205.169-.723.544-.83.955-.444 1.774.656 1.393 1.745 2.328 3.154 2.908.37.153.72.077 1.005-.224.038-.04.08-.079.109-.125.556-.927 1.36-.835 2.105-.306.489.347.963.713 1.447 1.067.734.541.728 1.049.28 1.781zm-4.18-9.597c-.187 0-.375.015-.56.046a.572.572 0 11-.188-1.128 4.494 4.494 0 015.174 5.176.572.572 0 01-1.126-.189 3.35 3.35 0 00-3.3-3.905zM18 12.857a.571.571 0 01-1.142 0c0-.945-.77-1.714-1.714-1.714a.571.571 0 010-1.142A2.859 2.859 0 0118 12.857zm3.846.697a.57.57 0 01-.684.431.571.571 0 01-.431-.683 5.045 5.045 0 00-6.034-6.034.57.57 0 11-.252-1.114 6.188 6.188 0 017.401 7.4z" fill="#1D1D1E"/></svg>